<?xml version="1.0" encoding="UTF-8" standalone="no"?>
<!DOCTYPE svg PUBLIC "-//W3C//DTD SVG 1.1//EN" "http://www.w3.org/Graphics/SVG/1.1/DTD/svg11.dtd">
<svg width="100%" height="100%" viewBox="0 0 135 70" version="1.1" xmlns="http://www.w3.org/2000/svg" xmlns:xlink="http://www.w3.org/1999/xlink" xml:space="preserve" xmlns:serif="http://www.serif.com/" style="fill-rule:evenodd;clip-rule:evenodd;stroke-linejoin:round;stroke-miterlimit:2;">
    <g id="Group">
        <g id="Group-12" transform="matrix(1,0,0,1,109.286,0)">
            <path id="Path" d="M24.1,25.3C23.6,25.9 23.1,26.6 22.7,27.3C22.3,28.1 22.1,29 22.1,29.9C22,31 22.2,32.1 22.1,33.2C22.9,32.4 23.6,31.5 24.1,30.5C24.4,30 24.7,29.5 24.8,29C25,28.4 25,27.8 25,27.2L25,26.4C25,26.1 25.3,25.8 25.3,25.4C25.4,25 25.3,24.6 25.5,24.2C25,24.4 24.6,24.8 24.3,25.1C24.2,25.2 24.1,25.2 24.1,25.3Z" style="fill:rgb(170,170,170);"/>
            <path id="Path_1_" d="M25.2,35.7C25.1,36.4 24.8,37 24.5,37.6C24.3,37.9 24.1,38.2 23.8,38.5C23.5,38.8 23.1,39.1 22.8,39.3C22.5,39.5 22.3,39.6 22,39.7C21.8,39.8 21.6,39.9 21.4,40C21.5,39.8 21.5,39.5 21.5,39.3C21.5,39 21.6,38.7 21.7,38.3C21.8,37.7 21.9,37.2 22.2,36.7C22.4,36.2 22.7,35.7 22.9,35.2C23.2,34.7 23.6,34.3 24,33.9C24.3,33.6 24.6,33.3 25,33.1C25.3,32.9 25.6,32.7 25.8,32.4C25.5,32.8 25.6,33.6 25.6,34.1C25.4,34.6 25.3,35.2 25.2,35.7Z" style="fill:rgb(170,170,170);"/>
            <path id="Path_2_" d="M11.8,56C12,54.9 12.4,53.8 12.3,52.7C12.2,51.4 11.4,50.4 11.2,49.1C11.1,48.7 11.1,48.4 11.3,48C11.1,48.2 10.9,48.3 10.7,48.6C10.5,48.8 10.4,49.1 10.2,49.4C10,49.9 9.9,50.4 9.8,50.9C9.6,52 9.6,53.4 10,54.4C10.3,55.1 10.9,56.1 11.8,56C11.8,55.8 11.9,55.6 11.9,55.4" style="fill:rgb(170,170,170);"/>
            <path id="Path_3_" d="M6.3,59.3C6.5,59.9 6.8,60.4 7.2,60.8C7.3,60.9 7.4,61 7.5,61.2C7.6,61.1 7.5,60.9 7.6,60.7C7.7,60.4 7.9,60.1 8.2,59.9C8.5,59.4 8.7,58.8 8.8,58.2C8.9,57.5 8.8,56.9 8.7,56.2C8.5,55.6 8.3,55 8,54.4C7.8,53.9 7.7,53.5 7.6,53C7.5,53.5 7.2,53.9 7,54.3C6.8,54.8 6.6,55.3 6.4,55.8C6,57 5.9,58.2 6.3,59.3Z" style="fill:rgb(170,170,170);"/>
            <path id="Path_4_" d="M15.4,11.8C15.1,11.9 15,11.1 14.9,10.9C14.6,10.4 14.2,10.1 14,9.7C13.5,8.8 13.2,7.9 13.1,6.9C13,6.4 13,5.9 13,5.4C13,5 13,4.3 13.4,4C13.7,3.7 14,4.5 14.1,4.8C14.3,5.3 14.5,5.7 14.7,6.2C15,6.6 15.3,7 15.5,7.5C15.7,8 15.9,8.5 16,9.1C16.1,9.6 16.1,10.1 16,10.6C15.9,10.9 15.8,11.7 15.4,11.8Z" style="fill:rgb(170,170,170);"/>
            <path id="Path_5_" d="M19.8,17.6C19.6,17.9 19.4,18.4 19.1,18.5C18.6,18.7 18.2,18 18,17.6C17.7,17 17.6,16.4 17.5,15.7C17.4,15.1 17.5,14.6 17.5,14C17.5,13.4 17.6,12.8 17.7,12.2C17.8,11.6 18,11 18.2,10.4C18.3,10.2 18.4,9.9 18.4,9.7C18.5,9.5 18.4,9.3 18.6,9.1C18.9,9.5 19,10.1 19.2,10.5C19.5,11 19.7,11.5 19.9,12.1C20.2,13.3 20.5,14.5 20.2,15.8C20.2,16.5 20.1,17.1 19.8,17.6Z" style="fill:rgb(170,170,170);"/>
            <path id="Path_6_" d="M7,7.2C7.4,7.2 8,7.4 8.4,7.6C9,7.8 9.7,8 10.3,8.3C10.8,8.6 11.3,8.9 11.7,9.3C12.1,9.7 12.5,10.3 12.7,10.8C12.3,10.9 11.9,10.8 11.5,10.8C11.1,10.8 10.7,10.7 10.3,10.5C9.8,10.3 9.3,9.9 8.9,9.5C8.3,8.9 7.6,8.1 7,7.2Z" style="fill:rgb(170,170,170);"/>
            <path id="Path_7_" d="M13.5,13.7C14.5,14.4 15.3,15.4 15.7,16.6C15.4,16.8 15,16.9 14.6,16.9C13.5,16.9 12.5,16.1 11.9,15.2C11.6,14.7 11.3,14.1 11,13.6C10.8,13.1 10.6,12.6 10.4,12.1C10.9,12.3 11.4,12.6 11.9,12.8C12.4,13.1 12.9,13.4 13.5,13.7Z" style="fill:rgb(170,170,170);"/>
            <path id="Path_8_" d="M22.9,21.9C22.7,22.7 22.4,23.6 22,24.3C21.7,24.8 21.3,25.3 20.9,25.7C20.9,25.3 20.7,24.8 20.6,24.5C20.6,24.3 20.5,24 20.5,23.8L20.5,22.8C20.4,21.7 20.6,20.7 20.9,19.7C21.1,19.1 21.4,18.6 21.7,18.1C21.9,17.8 22,17.5 22.2,17.2C22.3,17.1 22.7,16.6 22.8,16.5C23,16.5 23,17.1 23,17.2C23.1,17.9 23.1,18.5 23.1,19.2C23.2,20.1 23.1,21 22.9,21.9Z" style="fill:rgb(170,170,170);"/>
            <path id="Path_9_" d="M16.3,34.3C16.2,33.7 16.2,33.2 16.2,32.6C16.2,32.1 16.2,31.5 16.3,31.1C16.4,31.3 16.4,31.4 16.5,31.6C16.8,32.2 17.4,32.6 17.9,33.1C18.3,33.5 18.7,34 18.9,34.6C19.1,35.1 19.3,35.7 19.3,36.3C19.4,36.8 19.4,37.4 19.4,37.9C18.9,37.9 18.4,37.3 18,37C17.1,36.4 16.5,35.4 16.3,34.3Z" style="fill:rgb(170,170,170);"/>
            <path id="Path_10_" d="M15.5,49.7C15.3,50.3 14.9,50.2 14.5,49.9C14.2,49.7 13.9,49.3 13.9,48.9C13.8,48.4 13.8,47.9 13.8,47.5L13.8,45.8C13.8,45.3 13.9,44.7 14,44.2C14,43.7 14,43.1 14.1,42.7C14.2,43 14.4,43.2 14.6,43.4C14.8,43.7 15.1,44.1 15.3,44.5C15.9,45.4 16.2,46.5 16.2,47.6C16.2,48.1 16.2,48.6 16,49.2C15.7,49.2 15.6,49.4 15.5,49.7Z" style="fill:rgb(170,170,170);"/>
            <path id="Path_11_" d="M11.9,62.7C13.3,62.6 14.8,62.7 16.2,62.6C15.9,62.8 15.8,63.1 15.5,63.3C15.2,63.5 14.8,63.8 14.5,64C13.9,64.4 13.2,64.8 12.5,65C11.9,65.2 11.2,65.3 10.6,65.3C10.1,65.3 9.4,65.1 9,64.7C8.8,64.4 8.8,63.9 9.1,63.6C9.7,62.7 10.9,62.7 11.9,62.7Z" style="fill:rgb(170,170,170);"/>
            <path id="Path_12_" d="M17.8,44.3C17.4,44 16.8,43.8 16.5,43.4C15.7,42.5 15.3,41.4 15.2,40.2C15.1,39.6 15.2,39 15.3,38.5C15.3,38 15.3,37.4 15.4,37C15.7,37.5 16.1,37.9 16.5,38.3C17,38.8 17.5,39.3 17.9,39.9C18.4,40.9 18.6,42 18.4,43.1C18.2,43.4 18.1,43.9 17.8,44.3Z" style="fill:rgb(170,170,170);"/>
            <path id="Path_13_" d="M21.4,46.3C20.9,46.7 20.3,46.8 19.7,47.1C19.8,46.3 20,45.5 20.4,44.9C20.7,44.4 21,43.8 21.3,43.3C21.6,42.7 22.1,42.2 22.6,41.7C23.1,41.3 23.6,41 24,40.6C24.3,40.3 24.7,40.1 25.1,40C25,40.3 24.8,40.7 24.7,41C24.6,41.4 24.5,41.7 24.3,42.1C23.9,43.2 23.5,44.2 22.7,45.1C22.4,45.6 21.9,46 21.4,46.3Z" style="fill:rgb(170,170,170);"/>
            <path id="Path_14_" d="M19.8,37C19.8,34.7 19.7,32.3 19.4,30C18.6,30.4 17.3,30 16.7,29.4C16.3,28.9 16,28.4 15.8,27.8C15.6,27.3 15.5,26.7 15.4,26.1C15.3,25.7 15,25 15.3,24.6C15.6,24.8 15.9,25.1 16.1,25.4C16.5,25.7 16.9,26 17.2,26.4C17.6,26.7 18,27 18.3,27.4C18.5,27.6 18.8,27.8 19,28C18.8,26.5 18.5,25.2 18.2,23.8L18,23.8C16.7,23.6 15.5,22.7 14.7,21.6C14.3,21.1 13.9,20.5 13.6,19.8C13.5,19.5 13.4,19.3 13.4,19C13.3,18.8 13.2,18.4 13.2,18.2C13.6,18.4 14,18.6 14.4,18.8C15,19.1 15.5,19.4 16,19.8C16.4,20.1 16.8,20.4 17.1,20.7C17.2,20.8 17.4,20.9 17.5,21C15.4,13.5 12.2,8.7 10.9,7C10.8,7 10,6.3 9.9,6.2C9.3,5.7 8.6,5.4 8,5.1C7.5,4.8 7,4.5 6.6,4.1C6.2,3.7 6,3.3 5.6,2.9C5,2.1 4.6,1.1 4.2,0.2C4.9,0.6 5.6,1 6.4,1.3C7.1,1.6 7.8,1.9 8.5,2.3C9.1,2.7 9.7,3.2 10.2,3.7C10.6,4.1 10.9,4.7 11.1,5.2C11.2,5.5 11.5,6.1 11.5,6.2C12.9,8.1 20.9,19.9 20.9,36.6C20.9,41.5 19.8,46.3 17.6,50.7C18.2,50 19.2,49.5 20.1,49.3C20.6,49.1 21.1,49.1 21.5,48.9C22,48.8 22.5,48.6 23.1,48.5C22.9,48.5 22.7,48.8 22.6,49C22.4,49.3 22.1,49.6 21.9,49.9C21.3,50.8 20.9,51.8 20.2,52.6C19.8,53.1 19.3,53.5 18.7,53.7C18.3,53.9 17.6,54 17.2,53.8C16.7,53.5 16.7,53 16.8,52.4C15.9,54 15,55.6 13.9,57C14.3,56.8 14.8,56.6 15.3,56.5C16.1,56.4 16.9,56.3 17.7,56.3C18.5,56.2 19.2,56.1 20,56C19.3,56.6 18.7,57.3 18.1,58C17.7,58.4 17.3,58.7 16.8,59C16.4,59.3 15.9,59.6 15.4,59.8C14.9,60 14,60.1 13.5,59.9C13.1,59.7 12.8,59 12.9,58.6L12.9,58.5C7,65.8 0.3,69.8 0.3,69.8L0.3,67.2C0.3,67.2 19.8,55.2 19.8,37Z" style="fill:rgb(170,170,170);"/>
        </g>
        <g id="Group-13">
            <path id="Path_15_" d="M5.9,37C5.9,34.7 6,32.3 6.3,30C7.1,30.4 8.4,30 9,29.4C9.4,28.9 9.7,28.4 9.9,27.8C10.1,27.3 10.2,26.7 10.3,26.1C10.4,25.7 10.7,25 10.4,24.6C10.1,24.8 9.8,25.1 9.6,25.4C9.2,25.7 8.8,26 8.5,26.4C8.1,26.7 7.7,27 7.4,27.4C7.2,27.6 6.9,27.8 6.7,28C6.9,26.5 7.2,25.2 7.5,23.8L7.7,23.8C9,23.6 10.2,22.7 11,21.6C11.4,21.1 11.8,20.5 12.1,19.8C12.2,19.5 12.3,19.3 12.3,19C12.4,18.8 12.5,18.4 12.5,18.2C12.1,18.4 11.7,18.6 11.3,18.8C10.7,19.1 10.2,19.4 9.7,19.8C9.3,20.1 8.9,20.4 8.6,20.7C8.5,20.8 8.3,20.9 8.2,21C10.4,13.4 13.6,8.6 14.9,6.9C15,6.9 15.8,6.2 15.9,6.1C16.5,5.7 17.2,5.4 17.8,5C18.3,4.8 18.8,4.4 19.2,4.1C19.6,3.7 19.8,3.2 20.2,2.8C20.9,2 21.3,1 21.6,0.1C20.9,0.6 20.2,1 19.4,1.3C18.7,1.6 18,1.9 17.3,2.3C16.7,2.7 16.1,3.2 15.6,3.7C15.2,4.1 14.9,4.7 14.7,5.2C14.6,5.5 14.3,6.1 14.3,6.2C12.9,8.1 4.9,19.9 4.9,36.6C4.9,41.5 6,46.3 8.2,50.7C7.6,50 6.6,49.5 5.7,49.3C5.2,49.1 4.7,49.1 4.3,48.9C3.8,48.8 3.3,48.6 2.7,48.5C2.9,48.5 3.1,48.8 3.2,49C3.4,49.3 3.7,49.6 3.9,49.9C4.5,50.8 4.9,51.8 5.6,52.6C6,53.1 6.5,53.5 7.1,53.7C7.5,53.9 8.2,54 8.6,53.8C9.1,53.5 9.1,53 9,52.4C9.9,54 10.8,55.6 11.9,57C11.5,56.8 11,56.6 10.5,56.5C9.7,56.4 8.9,56.3 8.1,56.3C7.3,56.2 6.6,56.1 5.8,56C6.5,56.6 7.1,57.3 7.7,58C8.1,58.4 8.5,58.7 9,59C9.4,59.3 9.9,59.6 10.4,59.8C10.9,60 11.8,60.1 12.3,59.9C12.7,59.7 13,59 12.9,58.6L12.9,58.5C18.6,65.8 25.3,69.9 25.3,69.9L25.3,67.3C25.4,67.2 5.9,55.2 5.9,37Z" style="fill:rgb(170,170,170);"/>
            <path id="Path_16_" d="M7.9,44.3C8.4,44 8.9,43.8 9.2,43.4C10,42.5 10.4,41.4 10.5,40.2C10.6,39.6 10.5,39 10.4,38.5C10.4,38 10.4,37.4 10.3,37C10,37.5 9.6,37.9 9.2,38.3C8.7,38.8 8.2,39.3 7.8,39.9C7.5,40.4 7.4,40.9 7.3,41.4C7.2,41.9 7.2,42.5 7.3,43C7.5,43.4 7.7,43.9 7.9,44.3Z" style="fill:rgb(170,170,170);"/>
            <path id="Path_17_" d="M13.9,56C13.7,54.9 13.3,53.8 13.4,52.7C13.5,51.4 14.3,50.4 14.5,49.1C14.6,48.7 14.6,48.4 14.4,48C14.6,48.2 14.8,48.3 15,48.6C15.2,48.8 15.3,49.1 15.5,49.4C15.7,49.9 15.8,50.4 15.9,50.9C16.1,52 16.1,53.3 15.7,54.3C15.4,55.1 14.8,56.1 13.9,56C13.9,55.8 13.8,55.6 13.8,55.4" style="fill:rgb(170,170,170);"/>
            <path id="Path_18_" d="M1.7,25.3C2.3,25.9 2.7,26.6 3.1,27.3C3.5,28.1 3.7,29 3.7,29.9C3.8,31 3.6,32.1 3.7,33.2C2.9,32.4 2.2,31.5 1.7,30.5C1.4,30 1.1,29.5 1,29C0.8,28.4 0.8,27.8 0.8,27.2L0.8,26.4C0.8,26.1 0.5,25.8 0.5,25.4C0.4,25 0.5,24.6 0.3,24.2C0.8,24.4 1.2,24.8 1.5,25.1C1.5,25.2 1.6,25.2 1.7,25.3Z" style="fill:rgb(170,170,170);"/>
            <path id="Path_19_" d="M10.3,11.8C10.6,11.9 10.7,11.1 10.8,10.9C11.1,10.4 11.5,10.1 11.7,9.7C12.2,8.8 12.5,7.9 12.6,6.9C12.7,6.4 12.7,5.9 12.7,5.5C12.7,5.1 12.7,4.4 12.4,4.1C12.1,3.8 11.8,4.6 11.7,4.9C11.5,5.4 11.3,5.8 11.1,6.3C10.8,6.7 10.5,7.2 10.3,7.6C10,8 9.8,8.5 9.7,9.1C9.6,9.6 9.6,10.1 9.7,10.6C9.8,10.9 10,11.7 10.3,11.8Z" style="fill:rgb(170,170,170);"/>
            <path id="Path_20_" d="M0.5,35.7C0.6,36.4 0.9,37 1.2,37.6C1.4,37.9 1.6,38.2 1.9,38.5C2.2,38.8 2.6,39.1 2.9,39.3C3.2,39.5 3.4,39.6 3.7,39.7C4,39.9 4.2,40 4.4,40.1C4.3,39.9 4.3,39.6 4.3,39.4C4.3,39.1 4.2,38.8 4.1,38.4C4,37.8 3.9,37.3 3.7,36.8C3.5,36.3 3.2,35.8 3,35.3C2.7,34.8 2.3,34.4 1.9,34C1.6,33.7 1.3,33.4 0.9,33.2C0.6,33 0.3,32.8 0.1,32.5C0.4,32.9 0.3,33.7 0.3,34.2C0.3,34.6 0.4,35.2 0.5,35.7Z" style="fill:rgb(170,170,170);"/>
            <path id="Path_21_" d="M18.8,7.2C18.4,7.2 17.8,7.4 17.4,7.6C16.7,7.8 16.1,8 15.4,8.3C14.9,8.6 14.4,8.9 14,9.3C13.6,9.7 13.2,10.3 13,10.8C13.4,10.9 13.8,10.8 14.2,10.8C14.6,10.8 15,10.7 15.4,10.5C15.9,10.3 16.4,9.9 16.8,9.5C17.5,8.9 18.1,8.1 18.8,7.2Z" style="fill:rgb(170,170,170);"/>
            <path id="Path_22_" d="M12.3,13.7C11.3,14.4 10.5,15.4 10.1,16.6C10.4,16.8 10.8,16.9 11.2,16.9C12.3,16.9 13.3,16.1 13.9,15.2C14.2,14.7 14.5,14.1 14.8,13.6C15,13.1 15.3,12.6 15.4,12.1C14.9,12.3 14.4,12.6 13.9,12.8C13.4,13.1 12.8,13.4 12.3,13.7Z" style="fill:rgb(170,170,170);"/>
            <path id="Path_23_" d="M5.9,17.6C6.1,17.9 6.3,18.4 6.6,18.5C7.1,18.7 7.5,18 7.7,17.6C8,17 8.1,16.4 8.2,15.7C8.3,15.1 8.2,14.6 8.2,14C8.2,13.4 8.1,12.8 8,12.2C7.9,11.6 7.7,11 7.5,10.4C7.4,10.2 7.3,9.9 7.3,9.7C7.1,9.6 7.1,9.4 7,9.2C6.7,9.6 6.6,10.2 6.4,10.6C6.1,11.1 5.9,11.6 5.7,12.2C5.4,13.4 5.1,14.6 5.4,15.9C5.5,16.5 5.6,17.1 5.9,17.6Z" style="fill:rgb(170,170,170);"/>
            <path id="Path_24_" d="M2.8,21.9C3,22.8 3.3,23.6 3.7,24.3C4,24.8 4.4,25.3 4.8,25.7C4.8,25.3 5,24.8 5.1,24.5C5.1,24.3 5.2,24 5.2,23.8L5.2,22.8C5.3,21.7 5.1,20.7 4.8,19.7C4.6,19.1 4.3,18.6 4,18.1C3.8,17.8 3.7,17.5 3.5,17.2C3.4,17 3,16.5 2.8,16.5C2.6,16.5 2.6,17.1 2.6,17.2C2.5,17.9 2.5,18.5 2.5,19.2C2.5,20.1 2.6,21 2.8,21.9Z" style="fill:rgb(170,170,170);"/>
            <path id="Path_25_" d="M9.4,34.3C9.5,33.7 9.5,33.2 9.5,32.6C9.5,32.1 9.5,31.5 9.4,31.1C9.3,31.3 9.3,31.4 9.2,31.6C8.9,32.2 8.3,32.6 7.8,33.1C7.4,33.5 7,34 6.8,34.6C6.6,35.1 6.4,35.7 6.4,36.3C6.3,36.8 6.3,37.4 6.3,37.9C6.8,37.9 7.3,37.3 7.7,37C8.6,36.4 9.2,35.4 9.4,34.3Z" style="fill:rgb(170,170,170);"/>
            <path id="Path_26_" d="M4.3,46.3C4.8,46.7 5.4,46.8 6,47.1C5.9,46.3 5.7,45.5 5.3,44.9C5,44.4 4.7,43.8 4.4,43.3C4.1,42.7 3.6,42.2 3.1,41.7C2.6,41.3 2.1,41 1.7,40.6C1.4,40.3 1,40.1 0.6,40C0.7,40.3 0.9,40.7 1,41C1.1,41.4 1.2,41.7 1.4,42.1C1.8,43.2 2.2,44.2 3,45.1C3.3,45.6 3.8,46 4.3,46.3Z" style="fill:rgb(170,170,170);"/>
            <path id="Path_27_" d="M10.2,49.7C10.4,50.3 10.8,50.2 11.2,49.9C11.5,49.7 11.8,49.3 11.8,48.9C11.9,48.4 11.9,47.9 11.9,47.5L11.9,45.8C11.9,45.3 11.8,44.7 11.8,44.2C11.8,43.7 11.8,43.1 11.7,42.7C11.6,43 11.4,43.2 11.2,43.4C11,43.7 10.7,44.1 10.5,44.5C9.9,45.4 9.6,46.5 9.6,47.6C9.6,48.1 9.6,48.6 9.8,49.2C10,49.3 10.1,49.4 10.2,49.7Z" style="fill:rgb(170,170,170);"/>
            <path id="Path_28_" d="M13.8,62.7C12.4,62.6 10.9,62.7 9.5,62.6C9.8,62.8 9.9,63.1 10.2,63.3C10.5,63.5 10.9,63.8 11.2,64C11.8,64.4 12.5,64.8 13.2,65C13.8,65.2 14.5,65.3 15.1,65.3C15.6,65.3 16.4,65.1 16.7,64.7C16.9,64.4 16.9,63.9 16.6,63.6C16.1,62.8 14.8,62.7 13.8,62.7Z" style="fill:rgb(170,170,170);"/>
            <path id="Path_29_" d="M20.3,59.8C20.1,60.4 19.8,60.9 19.4,61.3C19.3,61.4 19.2,61.5 19.2,61.7C19.1,61.6 19.2,61.4 19.1,61.2C19,60.9 18.8,60.6 18.5,60.4C18.2,59.9 18,59.3 17.9,58.7C17.8,58 17.9,57.4 18,56.7C18.2,56.1 18.4,55.5 18.7,54.9C18.9,54.4 19,54 19.1,53.5C19.2,54 19.5,54.4 19.7,54.8C19.9,55.3 20.1,55.8 20.3,56.3C20.6,57.5 20.7,58.7 20.3,59.8Z" style="fill:rgb(170,170,170);"/>
        </g>
    </g>
    <g>
        <g transform="matrix(1,0,0,1,-22.2332,9.00752)">
            <text x="61.401px" y="32.248px" style="font-family:'CharlemagneStd-Bold', 'Charlemagne Std', fantasy;font-weight:700;font-size:8px;fill:rgb(170,170,170);">Sponso<tspan x="97.521px " y="32.248px ">r</tspan> o<tspan x="112.921px " y="32.248px ">f</tspan></text>
            <text x="60.025px" y="41.848px" style="font-family:'CharlemagneStd-Bold', 'Charlemagne Std', fantasy;font-weight:700;font-size:8px;fill:rgb(170,170,170);">Chinese CHI</text>
            <text x="80.525px" y="51.448px" style="font-family:'CharlemagneStd-Bold', 'Charlemagne Std', fantasy;font-weight:700;font-size:8px;fill:rgb(170,170,170);">2021</text>
        </g>
        <g transform="matrix(1,0,0,1,-22.0973,-3.66522)">
            <text x="54.047px" y="32.248px" style="font-family:'CharlemagneStd-Bold', 'Charlemagne Std', fantasy;font-weight:700;font-size:12px;fill:rgb(170,170,170);">Pl<tspan x="69.143px 77.387px " y="32.248px 32.248px ">at</tspan>inu<tspan x="112.643px " y="32.248px ">m</tspan></text>
        </g>
    </g>
    <path d="M67.7,5.7L68.9,8.2C69,8.3 69,8.3 69.1,8.3L71.9,8.7C72,8.7 72.1,8.9 72,9L70,11C69.9,11.1 69.9,11.1 69.9,11.2L70.4,14C70.5,14.2 70.2,14.3 70.1,14.2L67.6,13L67.4,13L64.9,14.3C64.7,14.4 64.6,14.2 64.6,14.1L65.1,11.3C65.1,11.2 65.1,11.2 65,11.1L63,9C62.9,8.9 62.9,8.7 63.1,8.7L65.9,8.3C66,8.3 66,8.2 66.1,8.2L67.3,5.6C67.4,5.5 67.6,5.5 67.7,5.7Z" style="fill:rgb(170,170,170);fill-rule:nonzero;"/>
    <path d="M78.5,7.3L79.3,8.9L79.4,9L81.1,9.2C81.2,9.2 81.2,9.3 81.2,9.4L80,10.6L80,10.7L80.3,12.4C80.3,12.5 80.2,12.6 80.1,12.5L78.5,11.7L78.4,11.7L76.9,12.5C76.8,12.5 76.7,12.5 76.7,12.4L77,10.7L77,10.6L75.7,9.4C75.6,9.3 75.7,9.2 75.8,9.2L77.4,9C77.4,9 77.5,9 77.5,8.9L78.3,7.3C78.4,7.2 78.5,7.2 78.5,7.3Z" style="fill:rgb(170,170,170);fill-rule:nonzero;"/>
    <path d="M56.5,7.3L57.3,8.9L57.4,9L59.1,9.2C59.2,9.2 59.2,9.3 59.2,9.4L58,10.6L58,10.7L58.3,12.4C58.3,12.5 58.2,12.6 58.1,12.5L56.5,11.7L56.4,11.7L54.9,12.5C54.8,12.5 54.7,12.5 54.7,12.4L55,10.7L55,10.6L53.7,9.4C53.6,9.3 53.7,9.2 53.8,9.2L55.4,9C55.4,9 55.5,9 55.5,8.9L56.3,7.3C56.4,7.2 56.5,7.2 56.5,7.3Z" style="fill:rgb(170,170,170);fill-rule:nonzero;"/>
</svg>
